<?xml version="1.0" encoding="utf-8"?>
<!-- Generator: Adobe Illustrator 21.0.1, SVG Export Plug-In . SVG Version: 6.00 Build 0)  -->
<svg version="1.1" id="Layer_1" xmlns="http://www.w3.org/2000/svg" xmlns:xlink="http://www.w3.org/1999/xlink" x="0px" y="0px"
	 width="492px" height="71px" viewBox="0 0 492 71" style="enable-background:new 0 0 492 71;" xml:space="preserve">
<style type="text/css">
	.st0{fill:#DFD6DF;}
</style>
<g>
	<g>
		<g>
			<polygon class="st0" points="66.5,32.9 66.5,29.5 66.5,23 81.8,23 81.8,18.2 66.5,18.1 66.5,18.1 66.5,11.9 66.5,8.5 82.3,8.5 
				82.3,3.3 60.8,3.3 60.8,38.1 82.3,38.1 82.3,32.9 			"/>
			<polygon class="st0" points="141,32.9 141,26.3 141,26.3 141,3.3 135.3,3.3 135.3,38.1 138.9,38.1 141,38.1 158.7,38.1 
				158.7,32.9 			"/>
			<polygon class="st0" points="206.9,38.1 189.2,6.2 189.2,6.2 186.9,1.9 166.5,38.1 173.4,38.1 186.8,13.3 200.4,38.1 			"/>
			<path class="st0" d="M246.1,3.3v24.5l-10.4-9.5L217.6,1.7v36.4h5.7V16c0-0.8,0-1.7-0.1-2.5l28.6,26.1v-4.9V33V3.3H246.1z"/>
			<g>
				<path class="st0" d="M320.1,20.3l-1,2.1c3.9,1.4,5.9,3.2,5.9,6.8c0,4.2-3.3,7-8.2,7.1c-3.7,0-7.4-1.4-10.2-4l-1.8,1.4
					c3.1,3.2,7.3,4.8,12,4.8c6.2,0,10.6-3.9,10.6-9.3C327.3,24.6,324.5,21.9,320.1,20.3z"/>
				<path class="st0" d="M308.3,11.9c0-4,3.1-6.6,8-6.7c3.4,0,6.4,1.3,9.2,3.9l1.7-1.4c-3.1-3.3-6.8-4.8-11-4.8
					c-6.1,0.1-10.3,3.7-10.3,8.9c0,4.4,2.9,7.1,7.8,8.8l1-2C310.5,17.4,308.3,15.2,308.3,11.9z"/>
			</g>
			<g>
				<path class="st0" d="M353.8,5.1c5.1,0,9.7,2.1,13.7,6.4l1.8-1.4c-4.3-4.7-9.7-7.2-15.5-7.2c-9.4,0-16.9,6.1-18.4,14.6h2.5
					C339.3,10.3,345.7,5.1,353.8,5.1z"/>
				<path class="st0" d="M353.8,36.3c-8.4,0-15-5.6-16.1-13.3h-2.5c1.2,9,8.8,15.5,18.6,15.5c6,0,10.9-2.2,15.7-7.2l-1.8-1.4
					C363.3,34.4,359.1,36.3,353.8,36.3z"/>
			</g>
			<g>
				<polygon class="st0" points="395.8,2.1 377.1,38.1 380,38.1 390,18.5 397.1,4.7 				"/>
				<polygon class="st0" points="399,13.3 411.6,38.1 414.3,38.1 400.3,10.8 				"/>
			</g>
			<path class="st0" d="M434.3,3.3h-9.7v34.9h2.4V22.3l0,0v-2.1l0,0v-4.4V5.5h7.4c5.1,0,8.6,2.4,8.6,7.3c0,5-3.5,7.3-8.6,7.3h-1.8
				v2.1h1.8c6.6,0,11.1-3,11.1-9.4C445.5,6.6,440.9,3.3,434.3,3.3z"/>
			<g>
				<rect x="463.9" y="19.3" class="st0" width="9.8" height="2.1"/>
				<polygon class="st0" points="458.3,35.9 458.3,21.4 458.3,21.4 458.3,19.3 458.3,19.3 458.3,18.6 458.3,10.8 458.3,10.8 
					458.3,5.5 474.2,5.5 474.2,3.3 455.9,3.3 455.9,38.1 474.2,38.1 474.2,35.9 				"/>
			</g>
			<g>
				<polygon class="st0" points="34.8,26.6 34.8,26.6 35.3,27.2 				"/>
				<path class="st0" d="M50.4,38.1L40.2,25.7c4.1-1.6,7.1-5.4,7.1-10.7c0-8-5.4-11.7-11.7-11.7H20.3v34.9h5.2v-10v-1.6v-4.7v-1.2V8
					h9.1c4,0,7.3,2.4,7.3,7.1c0,4.3-3.3,6.9-7.3,6.9H31l3.8,4.7l0,0l0.5,0.6l0.1,0.1l0,0l8.7,10.8h6.3
					C50.4,38.2,50.4,38.1,50.4,38.1z"/>
				<polygon class="st0" points="35.3,27.2 35.4,27.3 35.4,27.3 				"/>
			</g>
			<g>
				<path class="st0" d="M273.5,38.1L273.5,38.1h1.2c12.6,0,19.8-7.1,19.8-17.4c0-10.4-7.2-17.5-19.8-17.5h-12.5v20.6l5.7,7.2V8.4
					h6.7c9.3,0,14.2,5,14.2,12.3c0,7.2-4.9,12.2-14.2,12.2h-1h-0.1h-4.1L273.5,38.1z"/>
			</g>
			<g>
				<path class="st0" d="M104,38.1L104,38.1h1.2c12.6,0,19.8-7.1,19.8-17.4c0-10.4-7.2-17.5-19.8-17.5H92.7v20.6l5.7,7.2V8.4h6.7
					c9.3,0,14.2,5,14.2,12.3c0,7.2-4.9,12.2-14.2,12.2h-1H104h-4.1L104,38.1z"/>
			</g>
		</g>
	</g>
	<g>
		<g>
			<path class="st0" d="M115.6,66.7h3v1.5h-4.9V59h1.8L115.6,66.7L115.6,66.7z"/>
			<path class="st0" d="M126.6,66.4h-3.7l-0.6,1.8h-1.9l3.3-9.2h2.2l3.3,9.2h-2L126.6,66.4z M126.1,64.9l-1.3-3.8l-1.3,3.8H126.1z"
				/>
			<path class="st0" d="M139.4,68.1h-1.8l-4.2-6.3v6.3h-1.8v-9.2h1.8l4.2,6.3v-6.3h1.8V68.1z"/>
			<path class="st0" d="M148.1,59.5c0.7,0.4,1.3,0.9,1.7,1.6c0.4,0.7,0.6,1.5,0.6,2.4s-0.2,1.7-0.6,2.4c-0.4,0.7-1,1.2-1.7,1.6
				s-1.6,0.6-2.6,0.6h-3.2v-9.2h3.2C146.5,58.9,147.4,59.1,148.1,59.5z M147.7,65.8c0.5-0.5,0.8-1.3,0.8-2.2c0-1-0.3-1.7-0.8-2.2
				s-1.3-0.8-2.2-0.8h-1.3v6.1h1.3C146.4,66.6,147.2,66.3,147.7,65.8z"/>
			<path class="st0" d="M154.1,67.9c-0.5-0.2-0.9-0.5-1.2-0.9s-0.5-0.9-0.5-1.5h2c0,0.4,0.2,0.7,0.4,0.9c0.2,0.2,0.6,0.3,1,0.3
				s0.8-0.1,1-0.3c0.2-0.2,0.4-0.5,0.4-0.8s-0.1-0.5-0.2-0.7c-0.2-0.2-0.4-0.3-0.6-0.4c-0.3-0.1-0.6-0.2-1-0.3
				c-0.6-0.2-1.1-0.3-1.5-0.5s-0.7-0.4-1-0.8c-0.3-0.3-0.4-0.8-0.4-1.4c0-0.5,0.1-1,0.4-1.4c0.3-0.4,0.7-0.7,1.1-0.9
				c0.5-0.2,1.1-0.3,1.7-0.3c0.9,0,1.7,0.2,2.3,0.7s0.9,1.1,1,1.9h-2c0-0.3-0.2-0.6-0.4-0.8s-0.6-0.3-1-0.3s-0.6,0.1-0.9,0.3
				c-0.2,0.2-0.3,0.5-0.3,0.8c0,0.2,0.1,0.5,0.2,0.6c0.2,0.2,0.4,0.3,0.6,0.4c0.2,0.1,0.6,0.2,1,0.3c0.6,0.2,1.1,0.4,1.5,0.5
				c0.4,0.2,0.7,0.4,1,0.8s0.4,0.8,0.4,1.4c0,0.5-0.1,0.9-0.4,1.4c-0.3,0.4-0.6,0.8-1.1,1c-0.5,0.3-1.1,0.4-1.8,0.4
				C155.2,68.2,154.6,68.1,154.1,67.9z"/>
			<path class="st0" d="M161.7,61.1c0.4-0.7,1-1.3,1.7-1.7s1.5-0.6,2.4-0.6c1,0,1.9,0.3,2.7,0.8s1.3,1.3,1.6,2.2H168
				c-0.2-0.4-0.5-0.8-0.9-1s-0.8-0.3-1.3-0.3s-1,0.1-1.4,0.4c-0.4,0.3-0.7,0.6-1,1.1c-0.2,0.5-0.3,1-0.3,1.6s0.1,1.1,0.3,1.6
				s0.6,0.8,1,1.1c0.4,0.2,0.9,0.4,1.4,0.4s0.9-0.1,1.3-0.3c0.4-0.2,0.7-0.6,0.9-1h2.1c-0.3,0.9-0.8,1.7-1.6,2.2s-1.7,0.8-2.7,0.8
				c-0.9,0-1.7-0.2-2.4-0.6s-1.3-1-1.7-1.7s-0.6-1.5-0.6-2.4C161.1,62.6,161.3,61.8,161.7,61.1z"/>
			<path class="st0" d="M177.9,66.4h-3.7l-0.6,1.8h-1.9L175,59h2.2l3.3,9.2h-2L177.9,66.4z M177.4,64.9l-1.3-3.8l-1.3,3.8H177.4z"/>
			<path class="st0" d="M189.2,63.2c-0.2,0.4-0.6,0.8-1.1,1c-0.5,0.3-1.1,0.4-1.9,0.4h-1.5v3.5h-1.8v-9.2h3.4c0.7,0,1.3,0.1,1.8,0.4
				c0.5,0.2,0.9,0.6,1.1,1c0.2,0.4,0.4,0.9,0.4,1.5C189.6,62.3,189.5,62.7,189.2,63.2z M187.3,62.8c0.2-0.2,0.4-0.6,0.4-1
				c0-0.9-0.5-1.3-1.5-1.3h-1.5v2.7h1.5C186.7,63.1,187.1,63,187.3,62.8z"/>
			<path class="st0" d="M193.9,60.4v2.3h3.1v1.5h-3.1v2.4h3.5v1.5H192v-9.2h5.3v1.5C197.3,60.4,193.9,60.4,193.9,60.4z"/>
			<path class="st0" d="M210.1,66.4h-3.7l-0.6,1.8h-1.9l3.3-9.2h2.2l3.3,9.2h-2L210.1,66.4z M209.6,64.9l-1.3-3.8l-1.3,3.8H209.6z"
				/>
			<path class="st0" d="M219.8,68.1l-2-3.6h-0.9v3.6H215v-9.2h3.5c0.7,0,1.3,0.1,1.8,0.4c0.5,0.3,0.9,0.6,1.1,1
				c0.2,0.4,0.4,0.9,0.4,1.4c0,0.6-0.2,1.2-0.5,1.6c-0.4,0.5-0.9,0.8-1.6,1l2.2,3.7L219.8,68.1L219.8,68.1z M216.8,63.2h1.5
				c0.5,0,0.9-0.1,1.1-0.4c0.2-0.2,0.4-0.6,0.4-1s-0.1-0.7-0.4-1c-0.2-0.2-0.6-0.3-1.1-0.3h-1.5V63.2z"/>
			<path class="st0" d="M224.8,61.1c0.4-0.7,1-1.3,1.7-1.7s1.5-0.6,2.4-0.6c1,0,1.9,0.3,2.7,0.8s1.3,1.3,1.6,2.2H231
				c-0.2-0.4-0.5-0.8-0.9-1s-0.8-0.3-1.3-0.3s-1,0.1-1.4,0.4c-0.4,0.3-0.7,0.6-1,1.1c-0.2,0.5-0.3,1-0.3,1.6s0.1,1.1,0.3,1.6
				s0.6,0.8,1,1.1c0.4,0.2,0.9,0.4,1.4,0.4s0.9-0.1,1.3-0.3c0.4-0.2,0.7-0.6,0.9-1h2.1c-0.3,0.9-0.8,1.7-1.6,2.2s-1.7,0.8-2.7,0.8
				c-0.9,0-1.7-0.2-2.4-0.6s-1.3-1-1.7-1.7s-0.6-1.5-0.6-2.4C224.1,62.6,224.3,61.8,224.8,61.1z"/>
			<path class="st0" d="M243.5,58.9v9.2h-1.8v-3.9h-3.9v3.9H236v-9.2h1.8v3.8h3.9v-3.8C241.7,58.9,243.5,58.9,243.5,58.9z"/>
			<path class="st0" d="M248.3,58.9v9.2h-1.8v-9.2C246.5,58.9,248.3,58.9,248.3,58.9z"/>
			<path class="st0" d="M257.5,58.9v1.5H255v7.7h-1.8v-7.7h-2.5v-1.5C250.7,58.9,257.5,58.9,257.5,58.9z"/>
			<path class="st0" d="M261.8,60.4v2.3h3.1v1.5h-3.1v2.4h3.5v1.5H260v-9.2h5.3v1.5C265.3,60.4,261.8,60.4,261.8,60.4z"/>
			<path class="st0" d="M268.3,61.1c0.4-0.7,1-1.3,1.7-1.7s1.5-0.6,2.4-0.6c1,0,1.9,0.3,2.7,0.8c0.8,0.5,1.3,1.3,1.6,2.2h-2.1
				c-0.2-0.4-0.5-0.8-0.9-1s-0.8-0.3-1.3-0.3s-1,0.1-1.4,0.4c-0.4,0.3-0.7,0.6-1,1.1c-0.2,0.5-0.3,1-0.3,1.6s0.1,1.1,0.3,1.6
				c0.2,0.5,0.6,0.8,1,1.1c0.4,0.2,0.9,0.4,1.4,0.4s0.9-0.1,1.3-0.3c0.4-0.2,0.7-0.6,0.9-1h2.1c-0.3,0.9-0.8,1.7-1.6,2.2
				c-0.8,0.5-1.7,0.8-2.7,0.8c-0.9,0-1.7-0.2-2.4-0.6c-0.7-0.4-1.3-1-1.7-1.7c-0.4-0.7-0.6-1.5-0.6-2.4
				C267.7,62.6,267.9,61.8,268.3,61.1z"/>
			<path class="st0" d="M285.4,58.9v1.5h-2.5v7.7h-1.8v-7.7h-2.5v-1.5C278.6,58.9,285.4,58.9,285.4,58.9z"/>
			<path class="st0" d="M289.7,58.9v5.7c0,0.6,0.2,1.1,0.5,1.4s0.8,0.5,1.4,0.5s1.1-0.2,1.4-0.5s0.5-0.8,0.5-1.4v-5.7h1.9v5.7
				c0,0.8-0.2,1.4-0.5,2c-0.3,0.5-0.8,0.9-1.4,1.2c-0.6,0.3-1.2,0.4-1.9,0.4c-0.7,0-1.3-0.1-1.9-0.4s-1-0.7-1.3-1.2s-0.5-1.2-0.5-2
				v-5.7C287.9,58.9,289.7,58.9,289.7,58.9z"/>
			<path class="st0" d="M302.9,68.1l-2-3.6H300v3.6h-1.8v-9.2h3.5c0.7,0,1.3,0.1,1.8,0.4c0.5,0.3,0.9,0.6,1.1,1
				c0.3,0.4,0.4,0.9,0.4,1.4c0,0.6-0.2,1.2-0.5,1.6c-0.4,0.5-0.9,0.8-1.6,1l2.2,3.7L302.9,68.1L302.9,68.1z M300,63.2h1.5
				c0.5,0,0.9-0.1,1.1-0.4c0.2-0.2,0.4-0.6,0.4-1s-0.1-0.7-0.4-1c-0.2-0.2-0.6-0.3-1.1-0.3H300V63.2z"/>
			<path class="st0" d="M313.4,66.4h-3.7l-0.6,1.8h-1.9l3.3-9.2h2.2l3.3,9.2h-2L313.4,66.4z M312.9,64.9l-1.3-3.8l-1.3,3.8H312.9z"
				/>
			<path class="st0" d="M320.2,66.7h3v1.5h-4.9V59h1.8v7.7H320.2z"/>
			<path class="st0" d="M335.6,59.5c0.7,0.4,1.3,0.9,1.7,1.6c0.4,0.7,0.6,1.5,0.6,2.4s-0.2,1.7-0.6,2.4c-0.4,0.7-1,1.2-1.7,1.6
				s-1.6,0.6-2.6,0.6h-3.2v-9.2h3.2C334,58.9,334.9,59.1,335.6,59.5z M335.2,65.8c0.5-0.5,0.8-1.3,0.8-2.2c0-1-0.3-1.7-0.8-2.2
				s-1.3-0.8-2.2-0.8h-1.3v6.1h1.3C333.9,66.6,334.7,66.3,335.2,65.8z"/>
			<path class="st0" d="M342,60.4v2.3h3.1v1.5H342v2.4h3.5v1.5h-5.3v-9.2h5.3v1.5C345.5,60.4,342,60.4,342,60.4z"/>
			<path class="st0" d="M349.5,67.9c-0.5-0.2-0.9-0.5-1.2-0.9c-0.3-0.4-0.5-0.9-0.5-1.5h2c0,0.4,0.2,0.7,0.4,0.9
				c0.2,0.2,0.6,0.3,1,0.3s0.8-0.1,1-0.3c0.2-0.2,0.4-0.5,0.4-0.8s-0.1-0.5-0.3-0.7c-0.2-0.2-0.4-0.3-0.6-0.4
				c-0.3-0.1-0.6-0.2-1-0.3c-0.6-0.2-1.1-0.3-1.5-0.5s-0.7-0.4-1-0.8c-0.3-0.3-0.4-0.8-0.4-1.4c0-0.5,0.1-1,0.4-1.4s0.7-0.7,1.1-0.9
				c0.5-0.2,1.1-0.3,1.7-0.3c1,0,1.7,0.2,2.3,0.7c0.6,0.5,0.9,1.1,1,1.9h-2c0-0.3-0.2-0.6-0.4-0.8c-0.3-0.2-0.6-0.3-1-0.3
				s-0.6,0.1-0.9,0.3c-0.2,0.2-0.3,0.5-0.3,0.8c0,0.2,0.1,0.5,0.2,0.6c0.2,0.2,0.4,0.3,0.6,0.4c0.2,0.1,0.6,0.2,1,0.3
				c0.6,0.2,1.1,0.4,1.5,0.5c0.4,0.2,0.7,0.4,1,0.8s0.4,0.8,0.4,1.4c0,0.5-0.1,0.9-0.4,1.4c-0.3,0.4-0.6,0.8-1.1,1
				c-0.5,0.3-1.1,0.4-1.8,0.4C350.6,68.2,350,68.1,349.5,67.9z"/>
			<path class="st0" d="M358.8,58.9v9.2H357v-9.2C357,58.9,358.8,58.9,358.8,58.9z"/>
			<path class="st0" d="M367.9,61.7c-0.2-0.4-0.5-0.7-0.9-0.9s-0.8-0.3-1.3-0.3s-1,0.1-1.5,0.4c-0.4,0.2-0.8,0.6-1,1.1
				s-0.4,1-0.4,1.6s0.1,1.1,0.4,1.6c0.2,0.5,0.6,0.8,1,1.1s0.9,0.4,1.5,0.4c0.7,0,1.3-0.2,1.7-0.6c0.4-0.4,0.7-0.9,0.9-1.6h-3.2V63
				h5v1.6c-0.1,0.6-0.4,1.2-0.8,1.8c-0.4,0.5-0.9,1-1.6,1.3c-0.6,0.3-1.4,0.5-2.1,0.5c-0.9,0-1.7-0.2-2.4-0.6
				c-0.7-0.4-1.3-1-1.7-1.7c-0.4-0.7-0.6-1.5-0.6-2.4s0.2-1.7,0.6-2.4s1-1.3,1.7-1.7s1.5-0.6,2.4-0.6c1,0,1.9,0.3,2.7,0.8
				c0.8,0.5,1.3,1.2,1.6,2.1C369.9,61.7,367.9,61.7,367.9,61.7z"/>
			<path class="st0" d="M380.9,68.1H379l-4.2-6.3v6.3H373v-9.2h1.8l4.2,6.3v-6.3h1.8v9.2H380.9z"/>
		</g>
	</g>
</g>
</svg>
