<?xml version="1.0" encoding="utf-8"?>
<!-- Generator: Adobe Illustrator 21.0.1, SVG Export Plug-In . SVG Version: 6.00 Build 0)  -->
<svg version="1.1" id="Layer_1" xmlns="http://www.w3.org/2000/svg" xmlns:xlink="http://www.w3.org/1999/xlink" x="0px" y="0px"
	 width="350px" height="54px" viewBox="0 0 350 54" style="enable-background:new 0 0 350 54;" xml:space="preserve">
<style type="text/css">
	.st0{fill:#726754;}
</style>
<g>
	<g>
		<g>
			<polygon class="st0" points="35.4,25.4 35.4,22.9 35.4,18 46.8,18 46.8,14.4 35.4,14.4 35.4,14.4 35.4,9.8 35.4,7.2 47.2,7.2 
				47.2,3.3 31.1,3.3 31.1,29.3 47.2,29.3 47.2,25.4 			"/>
			<polygon class="st0" points="91,25.4 91,20.5 91,20.5 91,3.3 86.7,3.3 86.7,29.3 89.5,29.3 91,29.3 104.2,29.3 104.2,25.4 			"/>
			<polygon class="st0" points="140.2,29.3 127,5.5 127,5.5 125.2,2.3 110,29.3 115.2,29.3 125.1,10.8 135.3,29.3 			"/>
			<path class="st0" d="M169.4,3.3v18.3l-7.8-7.1L148.1,2.1v27.2h4.3V12.8c0-0.6,0-1.3-0.1-1.9l21.3,19.5v-3.7v-1.2V3.3H169.4z"/>
			<g>
				<path class="st0" d="M224.6,16l-0.8,1.5c2.9,1,4.4,2.4,4.4,5.1c0,3.1-2.4,5.2-6.1,5.3c-2.8,0-5.5-1.1-7.6-3l-1.4,1.1
					c2.3,2.4,5.5,3.6,9,3.6c4.7,0,7.9-2.9,7.9-7C230,19.2,227.9,17.2,224.6,16z"/>
				<path class="st0" d="M215.8,9.7c0-3,2.3-4.9,6-5c2.5,0,4.8,0.9,6.8,2.9l1.3-1c-2.3-2.4-5.1-3.6-8.2-3.6
					c-4.5,0.1-7.7,2.7-7.7,6.7c0,3.3,2.1,5.3,5.8,6.6l0.7-1.5C217.5,13.8,215.8,12.2,215.8,9.7z"/>
			</g>
			<g>
				<path class="st0" d="M249.7,4.7c3.8,0,7.2,1.6,10.2,4.7l1.3-1C258,4.9,254,3,249.7,3c-7,0-12.6,4.6-13.8,10.9h1.9
					C238.9,8.5,243.7,4.7,249.7,4.7z"/>
				<path class="st0" d="M249.7,28c-6.3,0-11.2-4.2-12-9.9h-1.9c0.9,6.7,6.5,11.6,13.9,11.6c4.5,0,8.1-1.7,11.7-5.4l-1.3-1
					C256.9,26.5,253.7,28,249.7,28z"/>
			</g>
			<g>
				<polygon class="st0" points="281.1,2.4 267.2,29.3 269.3,29.3 276.8,14.7 282.1,4.4 				"/>
				<polygon class="st0" points="283.5,10.8 292.9,29.3 294.9,29.3 284.4,8.9 				"/>
			</g>
			<path class="st0" d="M309.8,3.3h-7.2v26h1.8V17.5l0,0v-1.6l0,0v-3.3V5h5.5c3.8,0,6.4,1.8,6.4,5.5s-2.6,5.4-6.4,5.4h-1.4v1.6h1.3
				c4.9,0,8.3-2.3,8.3-7C318.2,5.8,314.7,3.3,309.8,3.3z"/>
			<g>
				<rect x="331.9" y="15.3" class="st0" width="7.3" height="1.6"/>
				<polygon class="st0" points="327.7,27.7 327.7,16.9 327.7,16.9 327.7,15.3 327.7,15.3 327.7,14.8 327.7,8.9 327.7,8.9 327.7,5 
					339.6,5 339.6,3.3 326,3.3 326,29.3 339.6,29.3 339.6,27.7 				"/>
			</g>
			<g>
				<polygon class="st0" points="11.7,20.7 11.7,20.7 12.1,21.2 				"/>
				<path class="st0" d="M23.4,29.3l-7.6-9.2c3.1-1.2,5.3-4,5.3-8c0-6-4-8.8-8.8-8.8H1v26h3.9v-7.4v-1.2v-3.5v-0.9V6.8h6.8
					c3,0,5.4,1.8,5.4,5.3c0,3.2-2.4,5.1-5.4,5.1H9l2.8,3.5l0,0l0.4,0.5l0.1,0.1l0,0l6.5,8.1h4.6V29.3z"/>
				<polygon class="st0" points="12.1,21.2 12.2,21.3 12.2,21.3 				"/>
			</g>
			<g>
				<path class="st0" d="M189.8,29.3L189.8,29.3h0.9c9.4,0,14.8-5.3,14.8-12.9c0-7.7-5.3-13-14.8-13h-9.3v15.4l4.2,5.4v-17h5
					c6.9,0,10.6,3.7,10.6,9.2c0,5.4-3.6,9.1-10.6,9.1h-0.7h-0.1h-3.1L189.8,29.3z"/>
			</g>
			<g>
				<path class="st0" d="M63.3,29.3L63.3,29.3h0.9C73.6,29.3,79,24,79,16.4c0-7.7-5.3-13-14.8-13h-9.3v15.4l4.2,5.4v-17h5
					c6.9,0,10.6,3.7,10.6,9.2c0,5.4-3.6,9.1-10.6,9.1h-0.7h-0.1h-3.1L63.3,29.3z"/>
			</g>
		</g>
	</g>
	<g>
		<g>
			<path class="st0" d="M72,50.6h2.3v1.1h-3.6v-6.9H72V50.6z"/>
			<path class="st0" d="M80.2,50.4h-2.7L77,51.7h-1.4l2.5-6.9h1.6l2.5,6.9h-1.5L80.2,50.4z M79.8,49.3l-1-2.9l-1,2.9H79.8z"/>
			<path class="st0" d="M89.8,51.7h-1.4L85.3,47v4.7h-1.4v-6.9h1.4l3.1,4.7v-4.7h1.4V51.7z"/>
			<path class="st0" d="M96.3,45.3c0.5,0.3,1,0.7,1.3,1.2s0.4,1.1,0.4,1.8s-0.1,1.3-0.4,1.8s-0.7,0.9-1.3,1.2
				c-0.5,0.3-1.2,0.4-1.9,0.4H92v-6.9h2.4C95.1,44.8,95.7,45,96.3,45.3z M96,49.9c0.4-0.4,0.6-0.9,0.6-1.7c0-0.7-0.2-1.3-0.6-1.7
				s-1-0.6-1.7-0.6h-1v4.5h1C95,50.5,95.6,50.3,96,49.9z"/>
			<path class="st0" d="M100.8,51.5c-0.4-0.2-0.7-0.4-0.9-0.7c-0.2-0.3-0.3-0.7-0.3-1.1h1.5c0,0.3,0.1,0.5,0.3,0.7
				c0.2,0.2,0.4,0.2,0.7,0.2c0.3,0,0.6-0.1,0.8-0.2c0.2-0.2,0.3-0.4,0.3-0.6c0-0.2-0.1-0.4-0.2-0.5s-0.3-0.2-0.5-0.3
				s-0.4-0.2-0.8-0.3s-0.8-0.3-1.1-0.4c-0.3-0.1-0.5-0.3-0.7-0.6s-0.3-0.6-0.3-1s0.1-0.8,0.3-1.1c0.2-0.3,0.5-0.5,0.9-0.7
				s0.8-0.2,1.3-0.2c0.7,0,1.3,0.2,1.7,0.5c0.4,0.3,0.7,0.8,0.7,1.4H103c0-0.2-0.1-0.4-0.3-0.6c-0.2-0.2-0.4-0.2-0.7-0.2
				c-0.3,0-0.5,0.1-0.6,0.2c-0.2,0.1-0.2,0.3-0.2,0.6c0,0.2,0.1,0.3,0.2,0.5c0.1,0.1,0.3,0.2,0.5,0.3s0.4,0.2,0.8,0.3
				s0.8,0.3,1.1,0.4c0.3,0.1,0.5,0.3,0.7,0.6s0.3,0.6,0.3,1s-0.1,0.7-0.3,1c-0.2,0.3-0.5,0.6-0.8,0.8c-0.4,0.2-0.8,0.3-1.3,0.3
				C101.6,51.8,101.1,51.7,100.8,51.5z"/>
			<path class="st0" d="M106.4,46.4c0.3-0.5,0.7-0.9,1.3-1.2c0.5-0.3,1.1-0.4,1.8-0.4c0.8,0,1.4,0.2,2,0.6c0.6,0.4,1,0.9,1.2,1.6
				h-1.6c-0.2-0.3-0.4-0.6-0.7-0.7c-0.3-0.2-0.6-0.2-1-0.2s-0.8,0.1-1.1,0.3c-0.3,0.2-0.6,0.4-0.7,0.8c-0.2,0.3-0.3,0.7-0.3,1.2
				s0.1,0.8,0.3,1.2c0.2,0.3,0.4,0.6,0.7,0.8c0.3,0.2,0.7,0.3,1.1,0.3s0.7-0.1,1-0.3s0.5-0.4,0.7-0.7h1.6c-0.2,0.7-0.6,1.2-1.2,1.6
				c-0.6,0.4-1.2,0.6-2,0.6c-0.7,0-1.2-0.1-1.8-0.4c-0.5-0.3-0.9-0.7-1.3-1.2c-0.3-0.5-0.5-1.1-0.5-1.8
				C106,47.6,106.1,47,106.4,46.4z"/>
			<path class="st0" d="M118.5,50.4h-2.7l-0.5,1.3h-1.4l2.5-6.9h1.6l2.5,6.9H119L118.5,50.4z M118.2,49.3l-1-2.9l-1,2.9H118.2z"/>
			<path class="st0" d="M127,48c-0.2,0.3-0.4,0.6-0.8,0.8s-0.8,0.3-1.4,0.3h-1.2v2.6h-1.4v-6.9h2.5c0.5,0,1,0.1,1.4,0.3
				s0.7,0.4,0.8,0.8c0.2,0.3,0.3,0.7,0.3,1.1C127.2,47.3,127.1,47.7,127,48z M125.5,47.7c0.2-0.2,0.3-0.4,0.3-0.7c0-0.7-0.4-1-1.1-1
				h-1.1v2h1.1C125.1,48,125.4,47.9,125.5,47.7z"/>
			<path class="st0" d="M130.4,46v1.7h2.3v1.1h-2.3v1.8h2.6v1.1h-4v-6.9h4V46H130.4z"/>
			<path class="st0" d="M142.5,50.4h-2.7l-0.5,1.3h-1.4l2.5-6.9h1.6l2.5,6.9H143L142.5,50.4z M142.2,49.3l-1-2.9l-1,2.9H142.2z"/>
			<path class="st0" d="M149.7,51.7l-1.5-2.7h-0.7v2.7h-1.4v-6.9h2.6c0.5,0,1,0.1,1.4,0.3s0.7,0.4,0.8,0.8c0.2,0.3,0.3,0.7,0.3,1.1
				c0,0.5-0.1,0.9-0.4,1.2c-0.3,0.4-0.7,0.6-1.2,0.8l1.6,2.8L149.7,51.7L149.7,51.7z M147.6,48h1.2c0.4,0,0.7-0.1,0.8-0.3
				c0.2-0.2,0.3-0.4,0.3-0.8c0-0.3-0.1-0.6-0.3-0.7c-0.2-0.2-0.5-0.3-0.8-0.3h-1.2V48z"/>
			<path class="st0" d="M153.5,46.4c0.3-0.5,0.7-0.9,1.3-1.2c0.5-0.3,1.1-0.4,1.8-0.4c0.8,0,1.4,0.2,2,0.6c0.6,0.4,1,0.9,1.2,1.6
				h-1.6c-0.2-0.3-0.4-0.6-0.7-0.7c-0.3-0.2-0.6-0.2-1-0.2s-0.8,0.1-1.1,0.3s-0.6,0.4-0.7,0.8c-0.2,0.3-0.3,0.7-0.3,1.2
				s0.1,0.8,0.3,1.2c0.2,0.3,0.4,0.6,0.7,0.8s0.7,0.3,1.1,0.3c0.4,0,0.7-0.1,1-0.3s0.5-0.4,0.7-0.7h1.6c-0.2,0.7-0.6,1.2-1.2,1.6
				c-0.6,0.4-1.2,0.6-2,0.6c-0.7,0-1.2-0.1-1.8-0.4c-0.5-0.3-0.9-0.7-1.3-1.2c-0.3-0.5-0.5-1.1-0.5-1.8
				C153,47.6,153.2,47,153.5,46.4z"/>
			<path class="st0" d="M167.5,44.8v6.9h-1.4v-2.9h-2.9v2.9h-1.4v-6.9h1.4v2.8h2.9v-2.8H167.5z"/>
			<path class="st0" d="M171,44.8v6.9h-1.4v-6.9H171z"/>
			<path class="st0" d="M177.9,44.8V46h-1.8v5.8h-1.4V46h-1.8v-1.1h5V44.8z"/>
			<path class="st0" d="M181.1,46v1.7h2.3v1.1h-2.3v1.8h2.6v1.1h-4v-6.9h4V46H181.1z"/>
			<path class="st0" d="M186,46.4c0.3-0.5,0.7-0.9,1.3-1.2c0.5-0.3,1.1-0.4,1.8-0.4c0.8,0,1.4,0.2,2,0.6c0.6,0.4,1,0.9,1.2,1.6h-1.6
				c-0.2-0.3-0.4-0.6-0.7-0.7c-0.3-0.2-0.6-0.2-1-0.2s-0.8,0.1-1.1,0.3s-0.6,0.4-0.7,0.8c-0.2,0.3-0.3,0.7-0.3,1.2s0.1,0.8,0.3,1.2
				c0.2,0.3,0.4,0.6,0.7,0.8s0.7,0.3,1.1,0.3c0.4,0,0.7-0.1,1-0.3s0.5-0.4,0.7-0.7h1.6c-0.2,0.7-0.6,1.2-1.2,1.6
				c-0.6,0.4-1.2,0.6-2,0.6c-0.7,0-1.2-0.1-1.8-0.4c-0.5-0.3-0.9-0.7-1.3-1.2c-0.3-0.5-0.5-1.1-0.5-1.8
				C185.5,47.6,185.7,47,186,46.4z"/>
			<path class="st0" d="M198.7,44.8V46h-1.8v5.8h-1.4V46h-1.8v-1.1h5V44.8z"/>
			<path class="st0" d="M201.9,44.8V49c0,0.5,0.1,0.8,0.4,1.1c0.2,0.2,0.6,0.4,1,0.4s0.8-0.1,1-0.4c0.2-0.2,0.4-0.6,0.4-1.1v-4.2
				h1.4V49c0,0.6-0.1,1.1-0.4,1.5c-0.3,0.4-0.6,0.7-1,0.9s-0.9,0.3-1.4,0.3s-1-0.1-1.4-0.3s-0.7-0.5-1-0.9c-0.2-0.4-0.4-0.9-0.4-1.5
				v-4.2H201.9z"/>
			<path class="st0" d="M211.8,51.7l-1.5-2.7h-0.7v2.7h-1.4v-6.9h2.6c0.5,0,1,0.1,1.4,0.3s0.7,0.4,0.8,0.8c0.2,0.3,0.3,0.7,0.3,1.1
				c0,0.5-0.1,0.9-0.4,1.2c-0.3,0.4-0.7,0.6-1.2,0.8l1.6,2.8L211.8,51.7L211.8,51.7z M209.7,48h1.2c0.4,0,0.7-0.1,0.8-0.3
				c0.2-0.2,0.3-0.4,0.3-0.8c0-0.3-0.1-0.6-0.3-0.7c-0.2-0.2-0.5-0.3-0.8-0.3h-1.2V48z"/>
			<path class="st0" d="M219.6,50.4h-2.7l-0.5,1.3H215l2.5-6.9h1.6l2.5,6.9h-1.5L219.6,50.4z M219.3,49.3l-1-2.9l-1,2.9H219.3z"/>
			<path class="st0" d="M224.7,50.6h2.3v1.1h-3.6v-6.9h1.4L224.7,50.6L224.7,50.6z"/>
			<path class="st0" d="M236.2,45.3c0.5,0.3,1,0.7,1.3,1.2s0.4,1.1,0.4,1.8s-0.2,1.3-0.4,1.8c-0.3,0.5-0.7,0.9-1.3,1.2
				c-0.5,0.3-1.2,0.4-1.9,0.4h-2.4v-6.9h2.4C235,44.8,235.6,45,236.2,45.3z M235.9,49.9c0.4-0.4,0.6-0.9,0.6-1.7
				c0-0.7-0.2-1.3-0.6-1.7c-0.4-0.4-1-0.6-1.7-0.6h-1v4.5h1C234.9,50.5,235.5,50.3,235.9,49.9z"/>
			<path class="st0" d="M240.9,46v1.7h2.3v1.1h-2.3v1.8h2.6v1.1h-4v-6.9h4V46H240.9z"/>
			<path class="st0" d="M246.5,51.5c-0.4-0.2-0.7-0.4-0.9-0.7s-0.3-0.7-0.3-1.1h1.5c0,0.3,0.1,0.5,0.3,0.7s0.4,0.2,0.7,0.2
				s0.6-0.1,0.8-0.2c0.2-0.2,0.3-0.4,0.3-0.6c0-0.2-0.1-0.4-0.2-0.5c-0.1-0.1-0.3-0.2-0.5-0.3s-0.4-0.2-0.8-0.3
				c-0.4-0.1-0.8-0.3-1.1-0.4c-0.3-0.1-0.5-0.3-0.7-0.6s-0.3-0.6-0.3-1s0.1-0.8,0.3-1.1s0.5-0.5,0.9-0.7s0.8-0.2,1.3-0.2
				c0.7,0,1.3,0.2,1.7,0.5s0.7,0.8,0.7,1.4h-1.5c0-0.2-0.1-0.4-0.3-0.6c-0.2-0.2-0.4-0.2-0.7-0.2s-0.5,0.1-0.6,0.2
				c-0.2,0.1-0.2,0.3-0.2,0.6c0,0.2,0.1,0.3,0.2,0.5c0.1,0.1,0.3,0.2,0.5,0.3s0.4,0.2,0.8,0.3c0.4,0.1,0.8,0.3,1.1,0.4
				c0.3,0.1,0.5,0.3,0.7,0.6s0.3,0.6,0.3,1s-0.1,0.7-0.3,1s-0.5,0.6-0.8,0.8c-0.4,0.2-0.8,0.3-1.3,0.3
				C247.3,51.8,246.9,51.7,246.5,51.5z"/>
			<path class="st0" d="M253.5,44.8v6.9h-1.4v-6.9H253.5z"/>
			<path class="st0" d="M260.3,46.9c-0.2-0.3-0.4-0.5-0.6-0.7c-0.3-0.1-0.6-0.2-1-0.2s-0.8,0.1-1.1,0.3c-0.3,0.2-0.6,0.4-0.7,0.8
				c-0.2,0.3-0.3,0.7-0.3,1.2s0.1,0.9,0.3,1.2c0.2,0.3,0.4,0.6,0.8,0.8c0.3,0.2,0.7,0.3,1.1,0.3c0.5,0,1-0.1,1.3-0.4
				c0.3-0.3,0.6-0.7,0.7-1.2h-2.4v-1.1h3.7v1.2c-0.1,0.5-0.3,0.9-0.6,1.3c-0.3,0.4-0.7,0.7-1.2,1c-0.5,0.2-1,0.4-1.6,0.4
				c-0.7,0-1.3-0.1-1.8-0.4c-0.5-0.3-1-0.7-1.3-1.2s-0.5-1.1-0.5-1.8s0.2-1.3,0.5-1.8s0.7-0.9,1.3-1.2c0.5-0.3,1.1-0.4,1.8-0.4
				c0.8,0,1.4,0.2,2,0.6c0.6,0.4,1,0.9,1.2,1.6h-1.6L260.3,46.9L260.3,46.9z"/>
			<path class="st0" d="M269.9,51.7h-1.4l-3.1-4.7v4.7H264v-6.9h1.4l3.1,4.7v-4.7h1.4V51.7z"/>
		</g>
	</g>
</g>
</svg>
