<?xml version="1.0" encoding="utf-8"?>
<!-- Generator: Adobe Illustrator 21.0.1, SVG Export Plug-In . SVG Version: 6.00 Build 0)  -->
<svg version="1.1" id="Layer_1" xmlns="http://www.w3.org/2000/svg" xmlns:xlink="http://www.w3.org/1999/xlink" x="0px" y="0px"
	 width="350px" height="54px" viewBox="0 0 350 54" style="enable-background:new 0 0 350 54;" xml:space="preserve">
<style type="text/css">
	.st0{fill:#DFDDD6;}
</style>
<g>
	<g>
		<g>
			<polygon class="st0" points="34.7,23.3 34.7,20.7 34.7,15.9 46.1,15.9 46.1,12.3 34.7,12.3 34.7,12.3 34.7,7.7 34.7,5.1 
				46.5,5.1 46.5,1.2 30.4,1.2 30.4,27.2 46.5,27.2 46.5,23.3 			"/>
			<polygon class="st0" points="90.4,23.3 90.4,18.4 90.4,18.4 90.4,1.2 86.1,1.2 86.1,27.2 88.8,27.2 90.4,27.2 103.6,27.2 
				103.6,23.3 			"/>
			<polygon class="st0" points="139.6,27.2 126.4,3.4 126.4,3.4 124.6,0.2 109.4,27.2 114.6,27.2 124.6,8.7 134.7,27.2 			"/>
			<path class="st0" d="M168.9,1.2v18.3l-7.8-7.1L147.6,0v27.2h4.3V10.7c0-0.6,0-1.3-0.1-1.9l21.4,19.5v-3.7v-1.2V1.2H168.9z"/>
			<g>
				<path class="st0" d="M224.2,13.9l-0.8,1.5c2.9,1,4.4,2.4,4.4,5.1c0,3.1-2.4,5.3-6.1,5.3c-2.8,0-5.6-1.1-7.7-3l-1.4,1.1
					c2.4,2.4,5.5,3.6,9,3.6c4.7,0,7.9-2.9,7.9-7C229.6,17.1,227.5,15.1,224.2,13.9z"/>
				<path class="st0" d="M215.4,7.6c0-3,2.3-4.9,6-5c2.5,0,4.8,1,6.8,2.9l1.3-1c-2.3-2.4-5.1-3.6-8.2-3.6c-4.5,0.1-7.7,2.7-7.7,6.7
					c0,3.3,2.1,5.3,5.8,6.6l0.7-1.5C217,11.7,215.4,10.1,215.4,7.6z"/>
			</g>
			<g>
				<path class="st0" d="M249.3,2.5c3.8,0,7.2,1.6,10.2,4.7l1.3-1c-3.2-3.5-7.3-5.4-11.6-5.4c-7.1,0-12.6,4.6-13.8,10.9h1.9
					C238.5,6.4,243.3,2.5,249.3,2.5z"/>
				<path class="st0" d="M249.3,25.9c-6.3,0-11.2-4.2-12.1-9.9h-1.9c0.9,6.7,6.5,11.6,13.9,11.6c4.5,0,8.1-1.7,11.7-5.4l-1.3-1
					C256.5,24.4,253.4,25.9,249.3,25.9z"/>
			</g>
			<g>
				<polygon class="st0" points="280.8,0.3 266.8,27.2 268.9,27.2 276.4,12.6 281.7,2.2 				"/>
				<polygon class="st0" points="283.1,8.7 292.6,27.2 294.6,27.2 284.1,6.8 				"/>
			</g>
			<path class="st0" d="M309.5,1.2h-7.2v26h1.8V15.4l0,0v-1.6l0,0v-3.3V2.9h5.5c3.8,0,6.4,1.8,6.4,5.5s-2.6,5.4-6.4,5.4h-1.4v1.6
				h1.3c4.9,0,8.3-2.3,8.3-7C317.9,3.7,314.4,1.2,309.5,1.2z"/>
			<g>
				<rect x="331.6" y="13.2" class="st0" width="7.3" height="1.6"/>
				<polygon class="st0" points="327.5,25.6 327.5,14.8 327.5,14.8 327.5,13.2 327.5,13.2 327.5,12.6 327.5,6.8 327.5,6.8 
					327.5,2.8 339.4,2.8 339.4,1.2 325.7,1.2 325.7,27.2 339.4,27.2 339.4,25.6 				"/>
			</g>
			<g>
				<polygon class="st0" points="11,18.6 11,18.6 11.4,19.1 				"/>
				<path class="st0" d="M22.7,27.2L15.1,18c3.1-1.2,5.3-4,5.3-8c0-6-4-8.8-8.8-8.8H0.2v26h3.9v-7.4v-1.2v-3.5v-0.9V4.7h6.8
					c3,0,5.4,1.8,5.4,5.3c0,3.2-2.4,5.1-5.4,5.1H8.2l2.8,3.5l0,0l0.4,0.5l0.1,0.1l0,0l6.5,8.1h4.7V27.2z"/>
				<polygon class="st0" points="11.4,19.1 11.5,19.2 11.5,19.2 				"/>
			</g>
			<g>
				<path class="st0" d="M189.4,27.2L189.4,27.2h0.9c9.4,0,14.8-5.3,14.8-13s-5.3-13-14.8-13H181v15.4l4.3,5.4V5h5
					c6.9,0,10.6,3.8,10.6,9.2s-3.6,9.1-10.6,9.1h-0.7h-0.1h-3.1L189.4,27.2z"/>
			</g>
			<g>
				<path class="st0" d="M62.7,27.2L62.7,27.2h0.9c9.4,0,14.8-5.3,14.8-13s-5.3-13-14.8-13h-9.3v15.4l4.3,5.4V5h5
					c6.9,0,10.6,3.8,10.6,9.2s-3.6,9.1-10.6,9.1h-0.7h-0.1h-3.1L62.7,27.2z"/>
			</g>
		</g>
	</g>
	<g>
		<g>
			<path class="st0" d="M71.4,48.5h2.3v1.1H70v-6.9h1.4V48.5z"/>
			<path class="st0" d="M79.6,48.3h-2.7l-0.5,1.3h-1.5l2.5-6.9H79l2.5,6.9H80L79.6,48.3z M79.2,47.2l-1-2.9l-1,2.9H79.2z"/>
			<path class="st0" d="M89.2,49.6h-1.4l-3.1-4.7v4.7h-1.4v-6.9h1.4l3.1,4.7v-4.7h1.4V49.6z"/>
			<path class="st0" d="M95.7,43.2c0.5,0.3,1,0.7,1.3,1.2s0.4,1.1,0.4,1.8S97.3,47.5,97,48s-0.7,0.9-1.3,1.2
				c-0.5,0.3-1.2,0.4-1.9,0.4h-2.4v-6.9h2.4C94.5,42.8,95.1,42.9,95.7,43.2z M95.4,47.9c0.4-0.4,0.6-0.9,0.6-1.7
				c0-0.7-0.2-1.3-0.6-1.7s-1-0.6-1.7-0.6h-1v4.5h1C94.4,48.5,95,48.3,95.4,47.9z"/>
			<path class="st0" d="M100.2,49.5c-0.4-0.2-0.7-0.4-0.9-0.7c-0.2-0.3-0.3-0.7-0.3-1.1h1.5c0,0.3,0.1,0.5,0.3,0.7
				c0.2,0.2,0.4,0.2,0.7,0.2c0.3,0,0.6-0.1,0.8-0.2c0.2-0.2,0.3-0.4,0.3-0.6c0-0.2-0.1-0.4-0.2-0.5s-0.3-0.2-0.5-0.3
				s-0.4-0.2-0.8-0.3s-0.8-0.3-1.1-0.4c-0.3-0.1-0.5-0.3-0.7-0.6s-0.3-0.6-0.3-1s0.1-0.8,0.3-1.1c0.2-0.3,0.5-0.5,0.9-0.7
				s0.8-0.2,1.3-0.2c0.7,0,1.3,0.2,1.7,0.5c0.4,0.3,0.7,0.8,0.7,1.4h-1.5c0-0.2-0.1-0.4-0.3-0.6c-0.2-0.2-0.4-0.2-0.7-0.2
				c-0.3,0-0.5,0.1-0.6,0.2c-0.2,0.1-0.2,0.3-0.2,0.6c0,0.2,0.1,0.3,0.2,0.5c0.1,0.1,0.3,0.2,0.5,0.3s0.4,0.2,0.8,0.3
				s0.8,0.3,1.1,0.4c0.3,0.1,0.5,0.3,0.7,0.6s0.3,0.6,0.3,1s-0.1,0.7-0.3,1c-0.2,0.3-0.5,0.6-0.8,0.8c-0.4,0.2-0.8,0.3-1.3,0.3
				C101,49.7,100.5,49.6,100.2,49.5z"/>
			<path class="st0" d="M105.9,44.4c0.3-0.5,0.7-1,1.3-1.2c0.5-0.3,1.1-0.4,1.8-0.4c0.8,0,1.4,0.2,2,0.6c0.6,0.4,1,0.9,1.2,1.6h-1.6
				c-0.2-0.3-0.4-0.6-0.7-0.7c-0.3-0.2-0.6-0.2-1-0.2s-0.8,0.1-1.1,0.3c-0.3,0.2-0.6,0.5-0.7,0.8c-0.2,0.3-0.3,0.7-0.3,1.2
				s0.1,0.9,0.3,1.2c0.2,0.3,0.4,0.6,0.7,0.8c0.3,0.2,0.7,0.3,1.1,0.3s0.7-0.1,1-0.3s0.5-0.4,0.7-0.7h1.6c-0.2,0.7-0.6,1.2-1.2,1.6
				c-0.6,0.4-1.3,0.6-2,0.6s-1.3-0.1-1.8-0.4c-0.5-0.3-0.9-0.7-1.3-1.2s-0.5-1.1-0.5-1.8C105.4,45.5,105.5,44.9,105.9,44.4z"/>
			<path class="st0" d="M118,48.3h-2.7l-0.5,1.3h-1.5l2.5-6.9h1.6l2.5,6.9h-1.5L118,48.3z M117.6,47.2l-1-2.9l-1,2.9H117.6z"/>
			<path class="st0" d="M126.4,45.9c-0.2,0.3-0.4,0.6-0.8,0.8s-0.8,0.3-1.4,0.3H123v2.6h-1.4v-6.9h2.5c0.5,0,1,0.1,1.4,0.3
				s0.7,0.4,0.8,0.8c0.2,0.3,0.3,0.7,0.3,1.1C126.7,45.3,126.6,45.6,126.4,45.9z M125,45.6c0.2-0.2,0.3-0.4,0.3-0.7
				c0-0.7-0.4-1-1.1-1H123v2h1.1C124.5,45.9,124.8,45.8,125,45.6z"/>
			<path class="st0" d="M129.9,43.9v1.7h2.3v1.1h-2.3v1.8h2.6v1.1h-4v-6.9h4v1.1h-2.6V43.9z"/>
			<path class="st0" d="M142,48.3h-2.7l-0.5,1.3h-1.5l2.5-6.9h1.6l2.5,6.9h-1.5L142,48.3z M141.6,47.2l-1-2.9l-1,2.9H141.6z"/>
			<path class="st0" d="M149.2,49.6l-1.5-2.7H147v2.7h-1.4v-6.9h2.6c0.5,0,1,0.1,1.4,0.3s0.7,0.4,0.8,0.8c0.2,0.3,0.3,0.7,0.3,1.1
				c0,0.5-0.1,0.9-0.4,1.2c-0.3,0.4-0.7,0.6-1.2,0.8l1.6,2.8L149.2,49.6L149.2,49.6z M147.1,45.9h1.2c0.4,0,0.7-0.1,0.8-0.3
				c0.2-0.2,0.3-0.4,0.3-0.8c0-0.3-0.1-0.6-0.3-0.7c-0.2-0.2-0.5-0.3-0.8-0.3h-1.2V45.9z"/>
			<path class="st0" d="M153,44.4c0.3-0.5,0.7-1,1.3-1.2c0.5-0.3,1.1-0.4,1.8-0.4c0.8,0,1.4,0.2,2,0.6c0.6,0.4,1,0.9,1.2,1.6h-1.6
				c-0.2-0.3-0.4-0.6-0.7-0.7c-0.3-0.2-0.6-0.2-1-0.2s-0.8,0.1-1.1,0.3s-0.6,0.5-0.7,0.8c-0.2,0.3-0.3,0.7-0.3,1.2s0.1,0.9,0.3,1.2
				s0.4,0.6,0.7,0.8s0.7,0.3,1.1,0.3c0.4,0,0.7-0.1,1-0.3s0.5-0.4,0.7-0.7h1.6c-0.2,0.7-0.6,1.2-1.2,1.6c-0.6,0.4-1.3,0.6-2,0.6
				s-1.3-0.1-1.8-0.4c-0.5-0.3-0.9-0.7-1.3-1.2c-0.3-0.5-0.5-1.1-0.5-1.8C152.5,45.5,152.6,44.9,153,44.4z"/>
			<path class="st0" d="M167,42.8v6.9h-1.4v-2.9h-3v2.9h-1.4v-6.9h1.4v2.8h3v-2.8H167z"/>
			<path class="st0" d="M170.5,42.8v6.9h-1.4v-6.9H170.5z"/>
			<path class="st0" d="M177.4,42.8v1.1h-1.8v5.8h-1.4v-5.8h-1.8v-1.1H177.4z"/>
			<path class="st0" d="M180.7,43.9v1.7h2.3v1.1h-2.3v1.8h2.6v1.1h-4v-6.9h4v1.1h-2.6V43.9z"/>
			<path class="st0" d="M185.5,44.4c0.3-0.5,0.7-1,1.3-1.2c0.5-0.3,1.1-0.4,1.8-0.4c0.8,0,1.4,0.2,2,0.6c0.6,0.4,1,0.9,1.2,1.6h-1.6
				c-0.2-0.3-0.4-0.6-0.7-0.7c-0.3-0.2-0.6-0.2-1-0.2s-0.8,0.1-1.1,0.3s-0.6,0.5-0.7,0.8c-0.2,0.3-0.3,0.7-0.3,1.2s0.1,0.9,0.3,1.2
				s0.4,0.6,0.7,0.8s0.7,0.3,1.1,0.3c0.4,0,0.7-0.1,1-0.3s0.5-0.4,0.7-0.7h1.6c-0.2,0.7-0.6,1.2-1.2,1.6c-0.6,0.4-1.3,0.6-2,0.6
				s-1.3-0.1-1.8-0.4c-0.5-0.3-0.9-0.7-1.3-1.2c-0.3-0.5-0.5-1.1-0.5-1.8C185,45.5,185.2,44.9,185.5,44.4z"/>
			<path class="st0" d="M198.3,42.8v1.1h-1.8v5.8H195v-5.8h-1.8v-1.1H198.3z"/>
			<path class="st0" d="M201.5,42.8V47c0,0.5,0.1,0.8,0.4,1.1c0.2,0.2,0.6,0.4,1,0.4s0.8-0.1,1-0.4c0.2-0.2,0.4-0.6,0.4-1.1v-4.3
				h1.4V47c0,0.6-0.1,1.1-0.4,1.5c-0.3,0.4-0.6,0.7-1,0.9s-0.9,0.3-1.4,0.3s-1-0.1-1.4-0.3s-0.7-0.5-1-0.9c-0.2-0.4-0.4-0.9-0.4-1.5
				v-4.2H201.5z"/>
			<path class="st0" d="M211.4,49.6l-1.5-2.7h-0.7v2.7h-1.4v-6.9h2.6c0.5,0,1,0.1,1.4,0.3s0.7,0.4,0.8,0.8c0.2,0.3,0.3,0.7,0.3,1.1
				c0,0.5-0.1,0.9-0.4,1.2c-0.3,0.4-0.7,0.6-1.2,0.8l1.6,2.8L211.4,49.6L211.4,49.6z M209.2,45.9h1.2c0.4,0,0.7-0.1,0.8-0.3
				c0.2-0.2,0.3-0.4,0.3-0.8c0-0.3-0.1-0.6-0.3-0.7c-0.2-0.2-0.5-0.3-0.8-0.3h-1.2V45.9z"/>
			<path class="st0" d="M219.2,48.3h-2.7l-0.5,1.3h-1.5l2.5-6.9h1.6l2.5,6.9h-1.5L219.2,48.3z M218.8,47.2l-1-2.9l-1,2.9H218.8z"/>
			<path class="st0" d="M224.3,48.5h2.3v1.1h-3.7v-6.9h1.4V48.5z"/>
			<path class="st0" d="M235.8,43.2c0.5,0.3,1,0.7,1.3,1.2s0.4,1.1,0.4,1.8s-0.2,1.3-0.4,1.8c-0.3,0.5-0.7,0.9-1.3,1.2
				c-0.5,0.3-1.2,0.4-1.9,0.4h-2.4v-6.9h2.4C234.6,42.8,235.2,42.9,235.8,43.2z M235.5,47.9c0.4-0.4,0.6-0.9,0.6-1.7
				c0-0.7-0.2-1.3-0.6-1.7c-0.4-0.4-1-0.6-1.7-0.6h-1v4.5h1C234.5,48.5,235.1,48.3,235.5,47.9z"/>
			<path class="st0" d="M240.5,43.9v1.7h2.3v1.1h-2.3v1.8h2.6v1.1h-4v-6.9h4v1.1h-2.6V43.9z"/>
			<path class="st0" d="M246.1,49.5c-0.4-0.2-0.7-0.4-0.9-0.7s-0.3-0.7-0.3-1.1h1.5c0,0.3,0.1,0.5,0.3,0.7s0.4,0.2,0.7,0.2
				s0.6-0.1,0.8-0.2c0.2-0.2,0.3-0.4,0.3-0.6c0-0.2-0.1-0.4-0.2-0.5c-0.1-0.1-0.3-0.2-0.5-0.3s-0.4-0.2-0.8-0.3
				c-0.4-0.1-0.8-0.3-1.1-0.4c-0.3-0.1-0.5-0.3-0.7-0.6s-0.3-0.6-0.3-1s0.1-0.8,0.3-1.1s0.5-0.5,0.9-0.7s0.8-0.2,1.3-0.2
				c0.7,0,1.3,0.2,1.7,0.5s0.7,0.8,0.7,1.4h-1.5c0-0.2-0.1-0.4-0.3-0.6c-0.2-0.2-0.4-0.2-0.7-0.2s-0.5,0.1-0.6,0.2
				c-0.2,0.1-0.2,0.3-0.2,0.6c0,0.2,0.1,0.3,0.2,0.5c0.1,0.1,0.3,0.2,0.5,0.3s0.4,0.2,0.8,0.3c0.4,0.1,0.8,0.3,1.1,0.4
				c0.3,0.1,0.5,0.3,0.7,0.6s0.3,0.6,0.3,1s-0.1,0.7-0.3,1s-0.5,0.6-0.8,0.8c-0.4,0.2-0.8,0.3-1.3,0.3
				C246.9,49.7,246.5,49.6,246.1,49.5z"/>
			<path class="st0" d="M253.1,42.8v6.9h-1.4v-6.9H253.1z"/>
			<path class="st0" d="M259.9,44.8c-0.2-0.3-0.4-0.5-0.7-0.7c-0.3-0.2-0.6-0.2-1-0.2s-0.8,0.1-1.1,0.3c-0.3,0.2-0.6,0.4-0.7,0.8
				c-0.2,0.3-0.3,0.7-0.3,1.2s0.1,0.9,0.3,1.2c0.2,0.3,0.4,0.6,0.8,0.8c0.3,0.2,0.7,0.3,1.1,0.3c0.5,0,1-0.1,1.3-0.4
				c0.3-0.3,0.6-0.7,0.7-1.2h-2.4v-1.1h3.7V47c-0.1,0.5-0.3,0.9-0.6,1.3c-0.3,0.4-0.7,0.7-1.2,1c-0.5,0.2-1,0.4-1.6,0.4
				c-0.7,0-1.3-0.1-1.8-0.4c-0.5-0.3-1-0.7-1.3-1.2s-0.5-1.1-0.5-1.8s0.2-1.3,0.5-1.8s0.7-1,1.3-1.2c0.5-0.3,1.1-0.4,1.8-0.4
				c0.8,0,1.5,0.2,2,0.6c0.6,0.4,1,0.9,1.2,1.6h-1.5L259.9,44.8L259.9,44.8z"/>
			<path class="st0" d="M269.6,49.6h-1.4l-3.1-4.7v4.7h-1.4v-6.9h1.4l3.1,4.7v-4.7h1.4V49.6z"/>
		</g>
	</g>
</g>
</svg>
